<?xml version="1.0" encoding="utf-8"?>
<!-- Generator: Adobe Illustrator 16.0.0, SVG Export Plug-In . SVG Version: 6.00 Build 0)  -->
<!DOCTYPE svg PUBLIC "-//W3C//DTD SVG 1.1//EN" "http://www.w3.org/Graphics/SVG/1.1/DTD/svg11.dtd">
<svg version="1.1" id="Layer_1" xmlns="http://www.w3.org/2000/svg" xmlns:xlink="http://www.w3.org/1999/xlink" x="0px" y="0px"
	 width="16.37px" height="19.09px" viewBox="0 0 16.37 19.09" enable-background="new 0 0 16.37 19.09" xml:space="preserve">
<g id="layer1_5_" inkscape:label="Layer">
	<path id="path2997_5_" inkscape:connector-curvature="0" fill="#242425" d="M13,10.081c0.024,2.586,2.342,3.445,2.367,3.457
		c-0.02,0.061-0.369,1.227-1.221,2.43c-0.735,1.041-1.498,2.08-2.701,2.102c-1.182,0.02-1.561-0.68-2.912-0.68
		c-1.35,0-1.771,0.658-2.89,0.699c-1.16,0.043-2.044-1.125-2.786-2.162C1.343,13.805,0.185,9.931,1.74,7.315
		c0.772-1.299,2.153-2.121,3.651-2.142c1.14-0.021,2.215,0.742,2.912,0.742c0.696,0,2.003-0.918,3.378-0.783
		c0.574,0.023,2.189,0.225,3.227,1.695C14.823,6.878,12.98,7.917,13,10.081 M10.78,3.729C11.396,3.007,11.811,2.001,11.698,1
		c-0.889,0.035-1.963,0.573-2.6,1.296c-0.57,0.639-1.07,1.662-0.936,2.644C9.153,5.014,10.164,4.452,10.78,3.729"/>
</g>
</svg>
