<?xml version="1.0" encoding="utf-8"?>
<!-- Generator: Adobe Illustrator 21.0.0, SVG Export Plug-In . SVG Version: 6.00 Build 0)  -->
<!DOCTYPE svg PUBLIC "-//W3C//DTD SVG 1.1//EN" "http://www.w3.org/Graphics/SVG/1.1/DTD/svg11.dtd">
<svg version="1.1" id="Layer_1" xmlns="http://www.w3.org/2000/svg" xmlns:xlink="http://www.w3.org/1999/xlink" x="0px" y="0px"
	 width="274.758667px" height="50.9444008px" viewBox="0 0 274.758667 50.9444008"
	 style="enable-background:new 0 0 274.758667 50.9444008;" xml:space="preserve">
<style type="text/css">
	.st0{fill:#242425;}
	.st1{fill:none;}
</style>
<symbol  id="New_Symbol_12_1_" viewBox="-196.3511353 -31.946949 355.3858337 65.893898">
	<polygon class="st0" points="21.4856186,19.9953766 10.4208059,9.8662176 13.2096138,7.4748507 13.2096138,-17.5738029 
		5.0937109,-10.1442404 5.0937109,13.0985308 -2.6167572,19.9953766 -13.6815147,9.8662176 -10.8927069,7.4748507 
		-10.8927069,-15.7800217 -10.8379555,-15.7800217 -10.8587208,-15.7990818 2.7923422,-28.2957439 13.2358332,-18.7353687 
		13.2361078,-18.7415199 29.1960316,-4.131187 29.1960316,13.0985308 29.1960869,13.0985308 	"/>
	<g>
		<polygon class="st0" points="124.6210098,9.3108425 124.6191559,9.3108425 124.6210098,9.312438 112.9513245,19.9953766 
			101.303421,9.3324337 89.6555176,19.9953766 77.9858322,9.312438 84.4648056,3.3813307 84.4648056,-26.071579 
			101.3252106,-26.071579 101.3252106,9.2726593 107.7606735,3.3813307 107.7606735,-26.071579 124.6210098,-26.071579 		"/>
	</g>
	<g>
		<polygon class="st0" points="-63.2718086,22.5016956 -79.9327621,22.5016956 -79.9327621,-20.9939346 -79.9189301,-26.071579 
			-63.2718086,-26.071579 		"/>
	</g>
	<g>
		<g>
			<g>
				<polygon class="st0" points="74.6521378,1.4966162 74.5482025,1.4966162 54.3406143,19.9953766 42.6709862,9.312438 
					57.7917938,-4.5296841 57.7917938,-17.8686581 57.8265915,-17.8686581 57.7917938,-17.9005661 69.1471405,-28.2957439 
					80.8168259,-17.6128597 74.6521378,-11.9694586 				"/>
			</g>
			<g>
				<polygon class="st0" points="51.0940399,1.4966162 34.2336998,1.4966162 34.2336998,-17.8686581 34.2684975,-17.8686581 
					34.2336998,-17.9005661 45.5890465,-28.2957439 57.2587357,-17.6128597 51.0940399,-11.9694586 				"/>
			</g>
		</g>
	</g>
	<polygon class="st0" points="-196.3511353,22.1890545 -189.2201843,15.6611652 -189.2201843,-13.6611061 -196.3511353,-20.1890545 
		-183.5071716,-31.946949 -170.6631775,-20.1890545 -170.6775513,-20.175827 -170.6631775,-20.175827 -170.6631775,22.1890545 
		-183.5071716,33.946949 	"/>
	<rect x="-165.8691254" y="-31.946949" class="st0" width="1.2916158" height="65.893898"/>
	<rect x="-168.9096985" y="-31.946949" class="st0" width="1.2916158" height="65.893898"/>
	<polygon class="st0" points="-129.4687958,15.0061932 -129.4997406,15.0345221 -129.4842377,15.048687 -150.1281433,33.946949 
		-162.9721375,22.1890545 -146.3737793,6.9943423 -162.9981842,-8.2243099 -162.9570465,-8.2618876 -162.9721375,-8.2757006 
		-137.1143494,-31.946949 -124.2703857,-20.1890545 -146.0927429,-0.2119914 	"/>
	<polygon class="st1" points="-108.7883835,-12.6245594 -108.778038,-12.6150904 -108.8000412,-12.6150904 	"/>
	<path class="st0" d="M-97.8898163-10.597537L-83.353569,2.731514l-1.1399765,0.9799676l0.0005264,0.000577l-17.7970963,16.3360996
		l-11.6696854-10.682847l4.3571396-4.0325847l10.4463806-9.516387l-8.8781967-8.1164265v3.1814804l0.0006256,13.0238266h-16.8603668
		v-16.4836159l-0.0402679-0.0413465l16.5246658-13.4518051l0.0382767,0.0394325h21.7978287v15.434577H-97.8898163z
		 M-108.778038-12.6150751l-0.0103836-0.009491l-0.0116348,0.009491H-108.778038z"/>
	<path class="st0" d="M-30.631443-10.597537l14.5362549,13.329051l-1.1399803,0.9799676l0.0005245,0.000577l-17.7970982,16.3360996
		l-11.6696815-10.682847l4.3571396-4.0325847l10.4463844-9.516387l-8.8782043-8.1164265v3.1814804l0.0006294,13.0238266h-16.860363
		v-16.4836159l-0.0402718-0.0413465l16.524662-13.4518051l0.0382805,0.0394325h21.7978249v15.434577H-30.631443z
		 M-41.5196609-12.6150751l-0.0103798-0.009491l-0.0116425,0.009491H-41.5196609z"/>
	<g>
		<g>
			<polygon class="st0" points="151.9796448,-1.5151743 159.0346985,-1.5151743 159.0346985,7.6624279 151.9617615,7.6624279 
				151.9617615,22.359354 135.1028137,22.359354 135.1028137,7.6624279 129.3183746,7.6624279 129.3183746,-1.5151743 
				135.1028137,-1.5151743 135.1123962,-26.071579 151.9796448,-26.071579 			"/>
		</g>
	</g>
</symbol>
<symbol  id="New_Symbol_9_1_" viewBox="-161.1574249 -26.1873112 322.3174133 59.7625122">
	
		<use xlink:href="#New_Symbol_12_1_"  width="355.3858337" height="65.893898" id="XMLID_38_" x="-196.3511353" y="-31.946949" transform="matrix(0.9069507 0 0 0.9069507 16.9233685 2.7869945)" style="overflow:visible;"/>
</symbol>
<g id="New_Symbol">
	<g id="New_Symbol_9">
		<g id="New_Symbol_12">
			<polygon class="st0" points="168.4156494,10.7863483 159.8611298,18.6174812 162.0172272,20.4663143 162.0172272,39.8321228 
				155.7425995,34.0881233 155.7425995,16.1184921 149.7814331,10.7863483 141.2269592,18.6174812 143.3830566,20.4663143 
				143.3830566,38.4453011 143.4253845,38.4453011 143.4093323,38.4600372 153.9633484,48.1215553 162.0375061,40.7301636 
				162.0377197,40.7349167 174.37677,29.4392643 174.37677,16.1184921 174.3768158,16.1184921 			"/>
			<g>
				<polygon class="st0" points="248.1524811,19.0468578 248.1510468,19.0468578 248.1524811,19.0456238 239.1303253,10.7863483 
					230.125,19.0301647 221.1196899,10.7863483 212.0975189,19.0456238 217.1065979,23.6311283 217.1065979,46.401989 
					230.1418457,46.401989 230.1418457,19.0763779 235.1172791,23.6311283 235.1172791,46.401989 248.1524811,46.401989 				"/>
			</g>
			<g>
				<polygon class="st0" points="102.8873215,8.8486433 90.006279,8.8486433 90.006279,42.4763222 90.0169678,46.401989 
					102.8873215,46.401989 				"/>
			</g>
			<g>
				<g>
					<g>
						<polygon class="st0" points="209.5201569,25.088253 209.4398041,25.088253 193.8167572,10.7863483 184.794632,19.0456238 
							196.4849548,29.7473526 196.4849548,40.0600853 196.5118561,40.0600853 196.4849548,40.0847511 205.2640839,48.1215553 
							214.2862549,39.8623199 209.5201569,35.4992485 						"/>
					</g>
					<g>
						<polygon class="st0" points="191.3067322,25.088253 178.2715302,25.088253 178.2715302,40.0600853 178.2984467,40.0600853 
							178.2715302,40.0847511 187.0506744,48.1215553 196.0728302,39.8623199 191.3067322,35.4992485 						"/>
					</g>
				</g>
			</g>
			<polygon class="st0" points="0,9.090354 5.5131359,14.1372471 5.5131359,36.8071098 0,41.8540497 9.9300261,50.9444008 
				19.8600769,41.8540497 19.8489552,41.8438225 19.8600769,41.8438225 19.8600769,9.090354 9.9300261,0 			"/>
			<rect x="23.5664864" class="st0" width="0.998584" height="50.9444008"/>
			<rect x="21.2157364" class="st0" width="0.998584" height="50.9444008"/>
			<polygon class="st0" points="51.7085991,14.6436243 51.6846733,14.6217222 51.6966629,14.6107712 35.7362823,0 
				25.8062325,9.090354 38.6388779,20.8378086 25.7860889,32.6037712 25.8178997,32.6328239 25.8062325,32.6435013 
				45.7976036,50.9444008 55.7276306,41.8540497 38.8561592,26.4092255 			"/>
			<polygon class="st1" points="67.697197,36.0057259 67.7051926,35.9984055 67.688179,35.9984055 			"/>
			<path class="st0" d="M76.1231766,34.4385796L87.361557,24.1335201l-0.8813477-0.7576408l0.0004044-0.0004463
				L72.7211838,10.7455406l-9.0221558,8.2592049l3.3686295,3.1177044l8.0763855,7.3573818l-6.8639832,6.2750359v-2.4596901
				l0.0004883-10.0690842H55.245327v12.7439423l-0.0311317,0.0319672l12.7756729,10.3999634l0.0295944-0.0304871h16.8525085
				V34.4385796H76.1231766z M67.7051926,35.998394l-0.0080261,0.0073357l-0.0089951-0.0073357H67.7051926z"/>
			<path class="st0" d="M128.1224976,34.4385796l11.2383728-10.3050594l-0.8813477-0.7576408l0.000412-0.0004463
				l-13.7594299-12.6298923l-9.0221558,8.2592049l3.3686218,3.1177044l8.0763931,7.3573818l-6.8639908,6.2750359v-2.4596901
				l0.0004883-10.0690842h-13.0352173v12.7439423l-0.0311356,0.0319672l12.7756805,10.3999634l0.0295944-0.0304871h16.8525085
				V34.4385796H128.1224976z M119.7045135,35.998394l-0.0080261,0.0073357l-0.0090027-0.0073357H119.7045135z"/>
			<g>
				<g>
					<polygon class="st0" points="269.3041992,27.4167519 274.758667,27.4167519 274.758667,20.3212929 269.2903748,20.3212929 
						269.2903748,8.9586916 256.2562561,8.9586916 256.2562561,20.3212929 251.7841339,20.3212929 251.7841339,27.4167519 
						256.2562561,27.4167519 256.2636414,46.401989 269.3041992,46.401989 					"/>
				</g>
			</g>
		</g>
	</g>
</g>
</svg>
