<?xml version="1.0" encoding="UTF-8"?>
<svg width="143px" height="28px" viewBox="0 0 143 28" version="1.1" xmlns="http://www.w3.org/2000/svg" xmlns:xlink="http://www.w3.org/1999/xlink">
    <!-- Generator: Sketch 46.2 (44496) - http://www.bohemiancoding.com/sketch -->
    <title>assets / Logo Copy</title>
    <desc>Created with Sketch.</desc>
    <defs></defs>
    <g id="Website" stroke="none" stroke-width="1" fill="none" fill-rule="evenodd">
        <g id="Artboard-Copy-7" transform="translate(-570.000000, -13.000000)">
            <g id="Group-4" transform="translate(0.000000, -1.000000)">
                <g id="assets-/-Logo-Copy-2" transform="translate(569.825095, 12.000000)">
                    <g id="XMLID_38_" transform="translate(71.583307, 15.268203) scale(-1, 1) rotate(-180.000000) translate(-71.583307, -15.268203) translate(0.141701, 1.339632)">
                        <g id="New_Symbol_12">
                            <polygon id="Shape" fill="#FFFFFF" fill-rule="nonzero" points="87.4112662 21.2427647 82.9844792 17.1044863 84.1002196 16.1274909 84.1002196 5.89383769 80.8532262 8.9291931 80.8532262 18.4250512 77.7684384 21.2427647 73.3416735 17.1044863 74.4574139 16.1274909 74.4574139 6.62668884 74.4793187 6.62668884 74.471011 6.61890182 79.9324995 1.51337765 84.1107094 5.41927878 84.1108192 5.4167657 90.4960319 11.3858323 90.4960319 18.4250512 90.4960541 18.4250512"></polygon>
                            <polygon id="Shape" fill="#FFFFFF" fill-rule="nonzero" points="128.673456 16.8775873 128.672715 16.8775873 128.673456 16.8782391 124.004673 21.2427647 119.344604 16.8864084 114.684536 21.2427647 110.015753 16.8782391 112.607847 14.4550791 112.607847 2.42206251 119.353322 2.42206251 119.353322 16.8619875 121.928008 14.4550791 121.928008 2.42206251 128.673456 2.42206251"></polygon>
                            <polygon id="Shape" fill="#FFFFFF" fill-rule="nonzero" points="53.5016932 22.2667239 46.836014 22.2667239 46.836014 4.49653936 46.8415479 2.42206251 53.5016932 2.42206251"></polygon>
                            <g id="Group" transform="translate(92.417994, 1.225653)" fill-rule="nonzero" fill="#FFFFFF">
                                <polygon id="Shape" points="16.2640217 12.459424 16.2224395 12.459424 8.13783013 20.0171116 3.4690699 15.652586 9.51857076 9.99737277 9.51857076 4.5477212 9.53249255 4.5477212 9.51857076 4.53468515 14.061594 0.287724555 18.7303771 4.6522279 16.2640217 6.95784523"></polygon>
                                <polygon id="Shape" points="6.83894748 12.459424 0.0934981238 12.459424 0.0934981238 4.5477212 0.107419914 4.5477212 0.0934981238 4.53468515 4.63652132 0.287724555 9.305306 4.6522279 6.83894748 6.95784523"></polygon>
                            </g>
                            <polygon id="Shape" fill="#FFFFFF" fill-rule="nonzero" points="0.259596423 22.138994 3.11253228 19.4720181 3.11253228 7.49237399 0.259596423 4.82537395 5.39818237 0.0216740407 10.5367805 4.82537395 10.5310298 4.83077806 10.5367805 4.83077806 10.5367805 22.138994 5.39818237 26.942694"></polygon>
                            <rect id="Rectangle-path" fill="#FFFFFF" fill-rule="nonzero" x="12.4547747" y="0.0216740407" width="1" height="26.9210199"></rect>
                            <rect id="Rectangle-path" fill="#FFFFFF" fill-rule="nonzero" x="11.2383087" y="0.0216740407" width="1" height="26.9210199"></rect>
                            <polygon id="Shape" fill="#FFFFFF" fill-rule="nonzero" points="27.017742 19.2044287 27.0053616 19.2160025 27.011564 19.2217895 18.7523937 26.942694 13.6137956 22.138994 20.2544318 15.9311787 13.6033749 9.71358268 13.6198331 9.69823028 13.6137956 9.69258696 23.958925 0.0216740407 29.0975109 4.82537395 20.3668682 12.9870237"></polygon>
                            <polygon id="Shape" points="35.2915178 7.91585622 35.2956568 7.91972479 35.2868538 7.91972479"></polygon>
                            <path d="M39.6517936,8.74399831 L45.4674248,14.1895958 L45.0113454,14.5899626 L45.011556,14.5901983 L37.8913312,21.2643287 L33.222548,16.8998405 L34.9657432,15.2523239 L39.1451092,11.3643942 L35.593139,8.04841975 L35.593139,9.34821685 L35.5933892,14.6691146 L28.8479292,14.6691146 L28.8479292,7.93471636 L28.8318189,7.91782421 L35.4429724,2.42207538 L35.4582861,2.43818556 L44.1791155,2.43818556 L44.1791155,8.7439979 L39.6517936,8.7439979 L39.6517936,8.74399831 Z M35.2956568,7.91973104 L35.2915025,7.91585348 L35.2868477,7.91973104 L35.2956568,7.91973104 Z" id="Shape" fill="#FFFFFF" fill-rule="nonzero"></path>
                            <path d="M66.5603819,8.74399831 L72.3760162,14.1895958 L71.9199352,14.5899626 L71.9201451,14.5901983 L64.7999195,21.2643287 L60.1311379,16.8998405 L61.8743331,15.2523239 L66.0537006,11.3643942 L62.5017273,8.04841975 L62.5017273,9.34821685 L62.5019791,14.6691146 L55.7565206,14.6691146 L55.7565206,7.93471636 L55.7404088,7.91782421 L62.3515607,2.42207538 L62.3668759,2.43818556 L71.0877038,2.43818556 L71.0877038,8.7439979 L66.5603819,8.7439979 L66.5603819,8.74399831 Z M62.2042466,7.91973104 L62.2000939,7.91585348 L62.195436,7.91973104 L62.2042466,7.91973104 Z" id="Shape" fill="#FFFFFF" fill-rule="nonzero"></path>
                            <polygon id="Shape" fill="#FFFFFF" fill-rule="nonzero" points="139.619041 12.4546069 142.441612 12.4546069 142.441612 16.2041258 139.611887 16.2041258 139.611887 22.2085701 132.866994 22.2085701 132.866994 16.2041258 130.552768 16.2041258 130.552768 12.4546069 132.866994 12.4546069 132.870828 2.42206251 139.619041 2.42206251"></polygon>
                        </g>
                    </g>
                </g>
            </g>
        </g>
    </g>
</svg>