<?xml version="1.0" encoding="utf-8"?>
<!-- Generator: Adobe Illustrator 16.0.0, SVG Export Plug-In . SVG Version: 6.00 Build 0)  -->
<!DOCTYPE svg PUBLIC "-//W3C//DTD SVG 1.1//EN" "http://www.w3.org/Graphics/SVG/1.1/DTD/svg11.dtd">
<svg version="1.1" id="Layer_1" xmlns="http://www.w3.org/2000/svg" xmlns:xlink="http://www.w3.org/1999/xlink" x="0px" y="0px"
	 width="738.956px" height="734.62px" viewBox="0 0 738.956 734.62" enable-background="new 0 0 738.956 734.62"
	 xml:space="preserve">
<path fill="#72CADA" d="M62.897,388.869c-27.572,0.211-50.928-16.22-59.54-41.864c-0.319-0.969-0.617-1.945-0.893-2.926
	c-9.385-32.842,8.812-67.199,41.428-78.2L567.025,90.617c6.212-1.797,12.64-2.736,19.106-2.791
	c28.305-0.221,52.303,16.571,61.125,42.758l0.783,2.529c9.786,34.207-14.528,64.739-43.661,74.525
	c-0.021,0.015-5.319,1.807-520.233,177.612C77.301,387.584,70.128,388.806,62.897,388.869L62.897,388.869z"/>
<path fill="#DF1766" d="M150.094,646.145c-27.788,0.201-51.224-15.999-59.736-41.277c-0.323-0.962-0.624-1.931-0.903-2.905
	c-9.515-33.233,8.662-67.951,41.388-78.967l523.153-176.869c6.76-2.258,13.741-3.412,20.762-3.479
	c27.863-0.21,52.344,16.812,60.98,42.377l0.803,2.66c5.054,17.67,2.068,37.528-7.979,53.201
	c-7.487,11.653-31.104,21.911-31.104,21.911L172.316,642.355c-7.162,2.425-14.661,3.707-22.222,3.8V646.145z"/>
<path fill="#E8A725" d="M585.583,647.264c-27.817,0.268-52.646-17.404-61.502-43.776L349.487,84.871l-0.874-2.911
	c-9.46-33.072,8.732-67.57,41.338-78.561c6.524-2.193,13.27-3.337,20.06-3.397c10.087-0.075,19.849,2.198,29.042,6.74
	c15.297,7.564,26.945,20.916,32.365,37.097l174.58,518.571l0.507,1.666c9.806,34.337-8.346,68.854-40.951,79.846
	C599.112,646.073,592.374,647.201,585.583,647.264L585.583,647.264z"/>
<path fill="#3FB890" d="M326.06,734.617c-27.834,0.265-52.674-17.423-61.528-43.812L89.982,172.208
	c-11.359-33.601,6.672-70.048,40.273-81.407c0.044-0.015,0.087-0.029,0.131-0.044c6.45-2.156,13.198-3.288,19.999-3.353
	c27.823-0.275,52.657,17.399,61.513,43.777l174.555,518.616c11.359,33.602-6.672,70.049-40.273,81.407
	c-0.059,0.02-0.117,0.04-0.176,0.06c-6.438,2.157-13.175,3.287-19.964,3.348h0.021V734.617z"/>
<path fill="#CC2128" d="M499.511,530.473l121.739-41.624l-39.797-118.187l-121.881,41.187L499.511,530.473z"/>
<path fill="#361538" d="M240.388,619.069l121.729-41.618L322.02,458.36l-121.851,41.203L240.388,619.069z"/>
<path fill="#66873A" d="M412.84,273.041l121.75-41.569l-39.33-116.807l-121.976,40.866L412.84,273.041z"/>
<path fill="#1E937D" d="M153.688,361.518l121.75-41.568l-39.812-118.297L113.65,242.513L153.688,361.518z"/>
</svg>
