<?xml version="1.0" encoding="UTF-8"?>
<svg width="531px" height="530px" viewBox="0 0 531 530" version="1.1" xmlns="http://www.w3.org/2000/svg" xmlns:xlink="http://www.w3.org/1999/xlink">
    <!-- Generator: Sketch 47.1 (45422) - http://www.bohemiancoding.com/sketch -->
    <title>Virtuous</title>
    <desc>Created with Sketch.</desc>
    <defs></defs>
    <g id="Ecosystem" stroke="none" stroke-width="1" fill="none" fill-rule="evenodd">
        <g id="Artboard" transform="translate(-1127.000000, -1212.000000)">
            <g id="Virtuous" transform="translate(1127.000000, 1212.000000)">
                <rect id="Rectangle" fill="#3E3EFF" x="0" y="0" width="531" height="530"></rect>
                <g id="Group-6" transform="translate(75.000000, 149.000000)">
                    <g id="relevant-token" transform="translate(17.652632, 0.000000)">
                        <polygon id="Fill-1" fill="#FFFFFF" points="27.88722 31.8541247 30.8379253 34.6429392 30.8379253 47.1689701 27.88722 49.956434 33.2033779 54.979001 38.5181779 49.956434 38.5127463 49.951032 38.5181779 49.951032 38.5181779 31.8541247 33.2033779 26.8329082"></polygon>
                        <polygon id="Fill-2" fill="#FFFFFF" points="39.9533368 54.9791361 40.2289895 54.9791361 40.2289895 26.8330433 39.9533368 26.8330433"></polygon>
                        <polygon id="Fill-3" fill="#FFFFFF" points="39.1087263 54.9791361 39.3843789 54.9791361 39.3843789 26.8330433 39.1087263 26.8330433"></polygon>
                        <g id="Group-26" transform="translate(0.000000, 0.325744)">
                            <path d="M84.51564,42.0536227 C84.51564,65.264932 65.5960926,84.0830144 42.2579558,84.0830144 C18.9184611,84.0830144 0.000271578947,65.264932 0.000271578947,42.0536227 C0.000271578947,18.8423134 18.9184611,0.0242309278 42.2579558,0.0242309278 C65.5960926,0.0242309278 84.51564,18.8423134 84.51564,42.0536227 Z" id="Stroke-4" stroke="#FFFFFF" stroke-width="2" stroke-linecap="round" stroke-linejoin="round"></path>
                            <path d="M4.66776316,42.0167536 L8.13311053,42.0167536" id="Stroke-6" stroke="#FFFFFF" stroke-width="2" stroke-linecap="round" stroke-linejoin="round"></path>
                            <path d="M15.6781168,15.6981784 L18.1277589,18.1345082" id="Stroke-8" stroke="#FFFFFF" stroke-width="2" stroke-linecap="round" stroke-linejoin="round"></path>
                            <path d="M15.6516379,68.5430381 L18.10128,66.1067082" id="Stroke-10" stroke="#FFFFFF" stroke-width="2" stroke-linecap="round" stroke-linejoin="round"></path>
                            <path d="M42.25782,4.66851856 L42.25782,8.11368351" id="Stroke-12" stroke="#FFFFFF" stroke-width="2" stroke-linecap="round" stroke-linejoin="round"></path>
                            <path d="M42.3440463,75.993832 L42.3440463,79.4389969" id="Stroke-14" stroke="#FFFFFF" stroke-width="2" stroke-linecap="round" stroke-linejoin="round"></path>
                            <path d="M76.3829368,41.9309959 L79.8482842,41.9309959" id="Stroke-16" stroke="#FFFFFF" stroke-width="2" stroke-linecap="round" stroke-linejoin="round"></path>
                            <path d="M66.4492579,66.0721351 L68.9002579,68.5084649" id="Stroke-18" stroke="#FFFFFF" stroke-width="2" stroke-linecap="round" stroke-linejoin="round"></path>
                            <path d="M66.30084,18.0476701 L68.7504821,15.6113402" id="Stroke-20" stroke="#FFFFFF" stroke-width="2" stroke-linecap="round" stroke-linejoin="round"></path>
                            <path d="M52.4977042,1.27440309 C70.8876726,5.82834124 84.5155042,22.354599 84.5155042,42.0532175 C84.5155042,64.1665577 67.3435674,82.2769701 45.5384937,83.9435062 C46.5867884,84.0272381 47.6432305,84.0826093 48.7118937,84.0826093 C71.1266621,84.0826093 89.2966516,65.503568 89.2966516,42.5853206 C89.2966516,20.9730216 73.1363463,3.22724845 52.4977042,1.27440309 Z" id="Stroke-22" stroke="#FFFFFF" stroke-width="2" stroke-linecap="round" stroke-linejoin="round"></path>
                            <polygon id="Fill-24" fill="#FFFFFF" points="54.6499674 35.947267 54.6377463 35.9351124 54.6445358 35.9297103 46.1006621 27.8576794 40.7845042 32.8788959 47.6540937 39.3694732 40.7736411 45.8695041 40.7912937 45.8857103 40.7845042 45.8924629 51.4847147 56.0037722 56.8022305 50.9812052 47.7695147 42.4486485"></polygon>
                        </g>
                    </g>
                    <text id="Relevant-Token" font-family="BebasNeueRegular, Bebas Neue" font-size="20" font-weight="normal" letter-spacing="0.5" fill="#FFFFFF">
                        <tspan x="10.05" y="120.793814">Relevant Toke</tspan>
                        <tspan x="110.77" y="120.793814">n</tspan>
                    </text>
                </g>
                <g id="Group-5" transform="translate(205.000000, 366.000000)">
                    <g id="content" transform="translate(14.890244, 0.000000)" stroke="#FFFFFF" stroke-width="2" stroke-linecap="round" stroke-linejoin="round">
                        <polygon id="Stroke-1" points="73.097561 85.3125 10.8292683 85.3125 10.8292683 0 58.7469126 0 73.097561 13.593098"></polygon>
                        <polygon id="Stroke-3" points="59.5609756 0 74.4512195 13.5416667 59.5609756 13.5416667"></polygon>
                        <path d="M59.5609756,65 C43.9072683,69.5192625 34.4939268,67.5742635 24.3658537,65" id="Stroke-5"></path>
                        <path d="M21.6585366,33.8541667 L31.1341463,33.8541667" id="Stroke-7"></path>
                        <path d="M50.0853659,33.8541667 L59.5609756,33.8541667" id="Stroke-9"></path>
                    </g>
                    <text id="Relevant-InFO" font-family="BebasNeueRegular, Bebas Neue" font-size="20" font-weight="normal" letter-spacing="0.5" fill="#FFFFFF">
                        <tspan x="8.33999976" y="120.75">Relevant </tspan>
                        <tspan x="76.6399998" y="120.75" letter-spacing="-0.599999905"> InFO</tspan>
                    </text>
                </g>
                <g id="Group-3" transform="translate(322.000000, 110.000000)">
                    <g id="metric" transform="translate(25.717172, 43.071429)" stroke="#FFFFFF" stroke-width="2" stroke-linecap="round" stroke-linejoin="round">
                        <path d="M2.70571717,56.8045143 C0.678121212,51.4695857 -0.282888889,45.6298 0.0730909091,39.5606571 C1.41309091,16.6045857 21.0610101,-0.914771429 43.9574141,0.4288 C66.8524646,1.77372857 84.3252525,21.4740143 82.983899,44.4300857 C82.6130303,50.7964429 80.8331313,56.7434429 77.967697,61.9860857" id="Stroke-1"></path>
                        <path d="M29.4288364,7.14027857 L31.5687758,13.2134929" id="Stroke-3"></path>
                        <path d="M70.0064727,32.1022071 L76.0703111,29.95385" id="Stroke-5"></path>
                        <path d="M7.42725455,54.2665214 L13.4843253,52.1208786" id="Stroke-7"></path>
                        <path d="M8.53620606,26.1945643 L14.3279838,28.9699214" id="Stroke-9"></path>
                        <path d="M54.8518848,14.6218 L57.6212182,8.81051429" id="Stroke-11"></path>
                        <path d="M43.8504848,53.3799 L46.8837576,32.9942571 C46.8769899,32.1039714 45.6141414,31.9411143 45.3840404,32.8029 L38.5365051,52.6687571 L38.5405657,52.6687571 C36.2923434,53.4097571 34.5598182,55.4169714 34.3188889,57.9616143 C34.0143434,61.1712571 36.3586667,64.1759714 39.5381212,64.6564 C42.955798,65.1721143 46.1190101,62.7808286 46.5751515,59.3594714 C46.8986465,56.9288286 45.7643838,54.6461143 43.8504848,53.3799 Z" id="Stroke-13"></path>
                        <path d="M4.12476364,39.7818714 L7.57221818,39.9840857" id="Stroke-15"></path>
                        <path d="M16.622497,14.0227571 L18.9167394,16.6108286" id="Stroke-17"></path>
                        <path d="M43.7182444,4.51149286 L43.5165677,7.96813571" id="Stroke-19"></path>
                        <path d="M66.8585556,19.3386857 L69.4397475,17.0369714" id="Stroke-21"></path>
                    </g>
                    <text id="Relevant-Metric" font-family="BebasNeueRegular, Bebas Neue" font-size="20" font-weight="normal" letter-spacing="0.5" fill="#FFFFFF">
                        <tspan x="9.85" y="161.714286">Relevant Metri</tspan>
                        <tspan x="116.55" y="161.714286">c</tspan>
                    </text>
                </g>
                <g id="square-arrows" transform="translate(124.000000, 164.000000)"></g>
                <g id="arrows" transform="translate(108.000000, 70.000000)">
                    <g id="Page-1" transform="translate(250.943648, 282.525594) rotate(70.000000) translate(-250.943648, -282.525594) translate(207.443648, 213.525594)">
                        <path d="M0,0 C15.7558472,8.02577184 25.0866776,14.7275738 36.8260598,25.9931155 C62.9001671,51.0141683 78.8431685,86.5337564 81.3294633,128.227141" id="Stroke-1" stroke="#FFFFFF" stroke-width="2" stroke-linecap="round" stroke-linejoin="round"></path>
                        <path d="M81.6693523,137.173043 C80.3551338,133.058142 78.1987251,127.995171 76.0136217,124.927304 L81.2317577,127.056997 L86.2289443,124.086114 C84.3236145,127.490457 82.617713,132.87209 81.6693523,137.173043" id="Fill-3" fill="#FFFFFF"></path>
                    </g>
                    <g id="Page-1" transform="translate(53.244291, 278.557037) rotate(172.000000) translate(-53.244291, -278.557037) translate(9.744291, 209.557037)">
                        <path d="M0,0 C15.7558472,8.02577184 25.0866776,14.7275738 36.8260598,25.9931155 C62.9001671,51.0141683 78.8431685,86.5337564 81.3294633,128.227141" id="Stroke-1" stroke="#FFFFFF" stroke-width="2" stroke-linecap="round" stroke-linejoin="round"></path>
                        <path d="M81.6693523,137.173043 C80.3551338,133.058142 78.1987251,127.995171 76.0136217,124.927304 L81.2317577,127.056997 L86.2289443,124.086114 C84.3236145,127.490457 82.617713,132.87209 81.6693523,137.173043" id="Fill-3" fill="#FFFFFF"></path>
                    </g>
                    <g id="Page-1" transform="translate(159.542102, 74.183668) rotate(302.000000) translate(-159.542102, -74.183668) translate(116.042102, 5.183668)">
                        <path d="M0,0 C15.7558472,8.02577184 25.0866776,14.7275738 36.8260598,25.9931155 C62.9001671,51.0141683 78.8431685,86.5337564 81.3294633,128.227141" id="Stroke-1" stroke="#FFFFFF" stroke-width="2" stroke-linecap="round" stroke-linejoin="round"></path>
                        <path d="M81.6693523,137.173043 C80.3551338,133.058142 78.1987251,127.995171 76.0136217,124.927304 L81.2317577,127.056997 L86.2289443,124.086114 C84.3236145,127.490457 82.617713,132.87209 81.6693523,137.173043" id="Fill-3" fill="#FFFFFF"></path>
                    </g>
                </g>
            </g>
        </g>
    </g>
</svg>