<svg version="1.1" id="Layer_1" xmlns="http://www.w3.org/2000/svg" xmlns:xlink="http://www.w3.org/1999/xlink" x="0px" y="0px"
	 width="240.49px" height="240.49px" viewBox="0 0 240.49 240.49" enable-background="new 0 0 240.49 240.49" xml:space="preserve">
<g>
	<circle fill="#ABABAB" cx="120.245" cy="120.246" r="110.244"/>
</g>
<g>
	<path fill="#FFFFFF" d="M120.244,101.806c-12.314,0-22.335,10.02-22.335,22.336c0,12.316,10.021,22.336,22.335,22.336
		c12.316,0,22.337-10.02,22.337-22.336C142.581,111.826,132.561,101.806,120.244,101.806z"/>
	<path fill="#FFFFFF" d="M183.415,81.184h-28.909c-4.139,0-7.496-3.355-7.496-7.494c0-4.14-3.354-7.495-7.493-7.495h-38.543
		c-4.14,0-7.495,3.355-7.495,7.495c0,4.139-3.355,7.494-7.494,7.494H57.076c-4.14,0-7.495,3.355-7.495,7.495v72.806
		c0,4.139,3.355,7.495,7.495,7.495h126.339c4.139,0,7.494-3.355,7.494-7.495V88.679C190.909,84.54,187.554,81.184,183.415,81.184z
		 M120.244,161.468c-20.581,0-37.325-16.744-37.325-37.326s16.744-37.326,37.325-37.326c20.583,0,37.328,16.744,37.328,37.326
		S140.827,161.468,120.244,161.468z M172.886,102.646c-2.982,0-5.4-2.418-5.4-5.401c0-2.983,2.418-5.401,5.4-5.401
		s5.402,2.418,5.402,5.401C178.288,100.228,175.868,102.646,172.886,102.646z"/>
</g>
</svg>
