<?xml version="1.0" encoding="utf-8"?>
<!-- Generator: Adobe Illustrator 16.0.0, SVG Export Plug-In . SVG Version: 6.00 Build 0)  -->
<!DOCTYPE svg PUBLIC "-//W3C//DTD SVG 1.1//EN" "http://www.w3.org/Graphics/SVG/1.1/DTD/svg11.dtd">
<svg version="1.1" id="Layer_1" xmlns="http://www.w3.org/2000/svg" xmlns:xlink="http://www.w3.org/1999/xlink" x="0px" y="0px"
	 width="654.79px" height="138.271px" viewBox="0 0 654.79 138.271" enable-background="new 0 0 654.79 138.271"
	 xml:space="preserve">
<g id="XMLID_87_">
	<g>
		<g id="XMLID_1271_">
			<g>
				<polygon fill="#242425" points="396.114,35.041 376.255,53.222 381.261,57.514 381.261,102.473 366.694,89.138 366.694,47.42 
					352.854,35.041 332.995,53.222 338,57.514 338,99.253 338.099,99.253 338.062,99.287 362.563,121.717 381.308,104.558 
					381.308,104.568 409.954,78.345 409.954,47.42 409.954,47.42 				"/>
				<g>
					<polygon fill="#242425" points="581.228,54.218 581.224,54.218 581.228,54.216 560.282,35.041 539.376,54.18 518.47,35.041 
						497.524,54.216 509.153,64.861 509.153,117.725 539.415,117.725 539.415,54.287 550.966,64.861 550.966,117.725 
						581.228,117.725 					"/>
				</g>
				<g>
					<polygon fill="#242425" points="243.987,30.543 214.083,30.543 214.083,108.61 214.108,117.725 243.987,117.725 					"/>
				</g>
				<g>
					<g>
						<g>
							<polygon fill="#242425" points="491.54,68.244 491.354,68.244 455.084,35.041 434.14,54.216 461.278,79.06 461.278,103.001 
								461.341,103.001 461.278,103.059 481.66,121.717 502.605,102.542 491.54,92.413 							"/>
						</g>
						<g>
							<polygon fill="#242425" points="449.257,68.244 418.995,68.244 418.995,103.001 419.058,103.001 418.995,103.059 
								439.376,121.717 460.321,102.542 449.257,92.413 							"/>
						</g>
					</g>
				</g>
				<polygon fill="#242425" points="10,31.104 22.8,42.82 22.8,95.449 10,107.166 33.054,128.271 56.106,107.166 56.081,107.143 
					56.106,107.143 56.106,31.104 33.054,10 				"/>
				<rect x="62.329" y="10" fill="#242425" width="1.193" height="118.271"/>
				<rect x="58.667" y="10" fill="#242425" width="1.193" height="118.271"/>
				<polygon fill="#242425" points="126.071,43.996 126.016,43.945 126.044,43.92 88.991,10 65.938,31.104 95.729,58.376 
					65.892,85.691 65.965,85.759 65.938,85.783 112.349,128.271 135.401,107.166 96.233,71.311 				"/>
				<polygon fill="none" points="162.292,93.589 162.311,93.572 162.271,93.572 				"/>
				<path fill="#242425" d="M181.854,89.951l26.091-23.924l-2.047-1.759l0.001-0.001l-31.943-29.321l-20.944,19.174l7.82,7.238
					l18.749,17.08l-15.935,14.568v-5.71l0.001-23.376h-30.263v29.585l-0.072,0.075l29.66,24.144l0.068-0.071h39.124V89.951H181.854z
					 M162.311,93.572l-0.019,0.017l-0.021-0.017H162.311z"/>
				<path fill="#242425" d="M302.572,89.951l26.091-23.924l-2.047-1.759l0.001-0.001l-31.942-29.321l-20.945,19.174l7.82,7.238
					l18.749,17.08l-15.935,14.568v-5.71V63.921h-30.261v29.585l-0.073,0.075l29.66,24.144l0.068-0.071h39.124V89.951H302.572z
					 M283.029,93.572l-0.019,0.017l-0.021-0.017H283.029z"/>
				<g>
					<g>
						<polygon fill="#242425" points="630.332,73.649 644.79,73.649 644.79,57.177 630.3,57.177 630.3,30.798 600.04,30.798 
							600.04,57.177 591.453,57.177 591.453,73.649 600.04,73.649 600.058,117.725 630.332,117.725 						"/>
					</g>
				</g>
			</g>
		</g>
	</g>
</g>
</svg>
