<?xml version="1.0" encoding="UTF-8"?>
<svg width="12px" height="12px" viewBox="0 0 12 12" version="1.1" xmlns="http://www.w3.org/2000/svg" xmlns:xlink="http://www.w3.org/1999/xlink">
    <!-- Generator: Sketch 52.6 (67491) - http://www.bohemiancoding.com/sketch -->
    <title>Shape</title>
    <desc>Created with Sketch.</desc>
    <g id="Web" stroke="none" stroke-width="1" fill="none" fill-rule="evenodd">
        <g id="Wallet-Hover" transform="translate(-536.000000, -365.000000)" fill="#0000FF" fill-rule="nonzero">
            <path d="M542,365 C538.686267,365 536,367.686267 536,371 C536,374.313733 538.686267,377 542,377 C545.313733,377 548,374.313733 548,371 C548,367.686267 545.313733,365 542,365 Z M542.292267,374.0036 C541.782133,374.402133 541.3212,374.601467 540.909067,374.601467 C540.625333,374.601467 540.419333,374.5288 540.290933,374.3836 C540.162533,374.2384 540.0984,374.074533 540.0984,373.892133 C540.0984,373.777333 540.1152,373.670933 540.149067,373.572933 C540.1828,373.475067 540.22,373.375333 540.260533,373.274 L541.2232,371.277733 C541.2772,371.162933 541.316133,371.07 541.339733,370.999067 C541.363333,370.928133 541.3752,370.865733 541.3752,370.8116 C541.3752,370.7576 541.365067,370.7188 541.3448,370.695067 C541.324533,370.671467 541.297467,370.6596 541.263733,370.6596 C541.175867,370.6596 541.005333,370.793067 540.752,371.059867 C540.498667,371.326667 540.348267,371.460133 540.301067,371.460133 C540.247067,371.460133 540.192933,371.422933 540.138933,371.348667 C540.0848,371.2744 540.057867,371.227067 540.057867,371.2068 C540.057867,371.1392 540.122,371.029467 540.2504,370.877467 C540.378667,370.725467 540.540933,370.565067 540.7368,370.396133 C540.9124,370.2408 541.123467,370.0956 541.370133,369.9604 C541.616667,369.825333 541.834533,369.757733 542.023733,369.757733 C542.327733,369.757733 542.555733,369.843867 542.707733,370.016133 C542.859733,370.1884 542.935733,370.396133 542.935733,370.639333 C542.935733,370.740667 542.9256,370.8488 542.905333,370.9636 C542.885067,371.0784 542.8412,371.196667 542.7736,371.318267 L542.003467,373.010667 C541.942667,373.152533 541.898667,373.267333 541.871733,373.3552 C541.844667,373.443067 541.8312,373.503867 541.8312,373.5376 C541.8312,373.578133 541.841333,373.603467 541.8616,373.6136 C541.881867,373.623733 541.902133,373.6288 541.9224,373.6288 C542.070933,373.6288 542.244933,373.5224 542.444267,373.3096 C542.6436,373.0968 542.770133,372.9904 542.824267,372.9904 C542.871467,372.9904 542.922133,373.025867 542.976267,373.0968 C543.030267,373.167733 543.057333,373.216667 543.057333,373.243733 C543.057333,373.351867 542.802267,373.6052 542.292267,374.0036 Z M543.569067,368.663467 C543.39,368.845867 543.172133,368.937067 542.915467,368.937067 C542.665467,368.937067 542.449333,368.845867 542.266933,368.663467 C542.084533,368.481067 541.993333,368.264933 541.993333,368.014933 C541.993333,367.764933 542.084533,367.5488 542.266933,367.3664 C542.449333,367.184 542.665467,367.0928 542.915467,367.0928 C543.172133,367.0928 543.39,367.184 543.569067,367.3664 C543.748,367.5488 543.8376,367.764933 543.8376,368.014933 C543.8376,368.264933 543.748133,368.480933 543.569067,368.663467 Z" id="Shape"></path>
        </g>
    </g>
</svg>