<?xml version="1.0" encoding="UTF-8"?>
<svg width="15px" height="13px" viewBox="0 0 15 13" version="1.1" xmlns="http://www.w3.org/2000/svg" xmlns:xlink="http://www.w3.org/1999/xlink">
    <!-- Generator: Sketch 52.6 (67491) - http://www.bohemiancoding.com/sketch -->
    <title>Group 33</title>
    <desc>Created with Sketch.</desc>
    <g id="Page-1" stroke="none" stroke-width="1" fill="none" fill-rule="evenodd">
        <g id="Profile" transform="translate(-525.000000, -206.000000)" fill="#000000">
            <g id="Group-15" transform="translate(448.000000, 204.000000)">
                <g id="Group-12" transform="translate(77.000000, 0.000000)">
                    <g id="Group-33" transform="translate(0.000000, 2.000000)">
                        <path d="M5.46333333,7.44398148 C6.90166667,7.44398148 8.06833333,5.67939815 8.06833333,4.28101852 C8.03259462,2.90767317 6.87720248,1.81243552 5.46416667,1.81243552 C4.05113086,1.81243552 2.89573872,2.90767317 2.86,4.28101852 C2.85833333,5.6712963 4.025,7.44398148 5.46333333,7.44398148 Z" id="Path"></path>
                        <path d="M7.86666667,7.74305556 L7.73333333,7.74305556 C7.10333333,8.53055556 6.3,8.96481481 5.46333333,8.96481481 C4.62666667,8.96481481 3.825,8.53865741 3.19333333,7.74305556 L3.06,7.74305556 C2.24728115,7.74305368 1.46794615,8.05737985 0.893892812,8.61670318 C0.31983947,9.17602652 -0.00177062931,9.93439558 -4.58892296e-15,10.724537 L-7.27259491e-06,12.562037 L10.9266739,12.562037 L10.9266667,10.724537 C10.9284373,9.93439558 10.6068272,9.17602652 10.0327739,8.61670318 C9.45872051,8.05737985 8.67938552,7.74305368 7.86666667,7.74305556 Z" id="Path"></path>
                        <polygon id="Path" points="12.8683333 2.11458333 12.8683333 0.0421296296 11.095 0.0421296296 11.095 2.11458333 8.96333333 2.11458333 8.96333333 3.83865741 11.095 3.83865741 11.095 5.91111111 12.8683333 5.91111111 12.8683333 3.83865741 15 3.83865741 15 2.11458333"></polygon>
                    </g>
                </g>
            </g>
        </g>
    </g>
</svg>