<?xml version="1.0" encoding="UTF-8"?>
<svg width="60px" height="55px" viewBox="0 0 60 55" version="1.1" xmlns="http://www.w3.org/2000/svg" xmlns:xlink="http://www.w3.org/1999/xlink">
    <!-- Generator: Sketch 46.2 (44496) - http://www.bohemiancoding.com/sketch -->
    <title>Group 11</title>
    <desc>Created with Sketch.</desc>
    <defs></defs>
    <g id="Website" stroke="none" stroke-width="1" fill="none" fill-rule="evenodd">
        <g id="Artboard-Copy-7" transform="translate(-607.000000, -1007.000000)" fill="#FFFFFF">
            <g id="Group-11" transform="translate(607.000000, 1007.000000)">
                <g id="Page-1">
                    <polygon id="Fill-1" points="10.6883156 1.28205128e-05 0 9.80552564 5.93411514 15.2495 5.93411514 39.7027051 0 45.1466795 10.6883156 54.9520641 21.3767591 45.1466795 21.3647335 45.1355256 21.3767591 45.1355256 21.3767591 9.80552564"></polygon>
                    <polygon id="Fill-2" points="25.3661834 54.9520513 26.4410661 54.9520513 26.4410661 -5.68434189e-14 25.3661834 -5.68434189e-14"></polygon>
                    <polygon id="Fill-3" points="22.8359488 54.9520513 23.9108316 54.9520513 23.9108316 -5.68434189e-14 22.8359488 -5.68434189e-14"></polygon>
                    <polygon id="Fill-4" points="38.4653859 1.28205128e-05 27.7769424 9.80552564 41.5897356 22.4769359 27.755322 35.1686026 27.7894797 35.1998846 27.7769424 35.2114231 49.2950661 54.9520641 59.9833817 45.1466795 41.823467 28.4866795 55.6573689 15.7956538 55.6317825 15.7720641 55.6447036 15.760141"></polygon>
                </g>
            </g>
        </g>
    </g>
</svg>