<?xml version="1.0" encoding="UTF-8"?>
<svg width="12px" height="12px" viewBox="0 0 12 12" version="1.1" xmlns="http://www.w3.org/2000/svg" xmlns:xlink="http://www.w3.org/1999/xlink">
    <!-- Generator: Sketch 52.6 (67491) - http://www.bohemiancoding.com/sketch -->
    <title>Shape</title>
    <desc>Created with Sketch.</desc>
    <g id="Page-1" stroke="none" stroke-width="1" fill="none" fill-rule="evenodd">
        <g id="Profile" transform="translate(-448.000000, -207.000000)" fill="#000000">
            <g id="Group-15" transform="translate(448.000000, 204.000000)">
                <g id="Shape-2" transform="translate(0.000000, 3.000000)">
                    <path d="M4.62486667,0.131198242 L7.52804,0.167799692 L7.50977213,1.57827442 C8.1554468,1.79071925 8.75592413,2.13897771 9.26506547,2.60965727 L10.5083828,1.92061464 L11.9277695,4.425252 L10.6841375,5.11460585 C10.8242961,5.78931969 10.8110676,6.47820145 10.6572081,7.1334542 L11.8835175,7.85458167 L10.4001975,10.3226124 L9.17436147,9.6019531 C8.9223908,9.82265288 8.64317613,10.0210788 8.33750413,10.190536 C8.0316748,10.3601487 7.71513747,10.491914 7.3930868,10.5891021 L7.37481893,11.9992735 L4.4719656,11.9626721 L4.49039093,10.5517226 C3.84471627,10.3397459 3.24376693,9.99101934 2.73463093,9.52065099 L1.49099893,10.2100048 L0.0719322667,7.70536747 L1.3152496,7.01616923 C1.1749336,6.34114418 1.18831947,5.65194066 1.34202147,4.99654286 L0.116500133,4.27588352 L1.59998013,1.80769451 L2.82502947,2.52819824 C3.07715747,2.30734286 3.3562148,2.10938374 3.66204413,1.93977099 C3.96771613,1.77046945 4.2847268,1.63776923 4.60677613,1.54026989 L4.62488653,0.131192967 L4.62486667,0.131198242 Z M7.96378667,4.97661363 C8.57166533,6.04927121 8.18520533,7.40648176 7.10047333,8.00768176 C6.01589733,8.60888044 4.64376667,8.22666725 4.03572667,7.15385538 C3.427848,6.0810422 3.814308,4.72398725 4.89904,4.12278725 C5.98377333,3.52158857 7.35590667,3.90380176 7.96378667,4.97661363 Z" id="Shape"></path>
                </g>
            </g>
        </g>
    </g>
</svg>