<svg width="48" height="50" viewBox="0 0 48 50" fill="none" xmlns="http://www.w3.org/2000/svg">
<path d="M3.03863 17.1991C2.23274 17.1991 1.45985 17.5193 0.889994 18.0891C0.320141 18.659 0 19.4319 0 20.2378V46.8319C0 47.6378 0.320141 48.4107 0.889994 48.9805C1.45985 49.5504 2.23274 49.8705 3.03863 49.8705H11.8385C12.6089 49.8724 13.3512 49.5816 13.9153 49.057C14.4794 48.5324 14.8232 47.813 14.8771 47.0446L16.7611 48.1749C18.5545 49.2516 20.6068 49.8208 22.6986 49.8219H35.5398C37.093 49.8385 38.6327 49.5322 40.0613 48.9224C44.1635 47.0993 44.8077 43.8965 44.5038 41.7695C45.5569 40.8851 46.3116 39.6975 46.6651 38.3685C47.0185 37.0395 46.9535 35.6338 46.4789 34.3431C47.4958 33.1128 48.0352 31.5571 47.9982 29.9614C47.9318 28.7113 47.4985 27.5086 46.7524 26.5034C47.2184 25.4301 47.3348 24.2374 47.085 23.0942C46.8352 21.9511 46.2319 20.9156 45.3607 20.1345C45.2351 20.017 45.1034 19.9055 44.9657 19.8002C44.2745 19.2862 43.4771 18.9332 42.632 18.7671H42.5651C38.5359 17.9102 35.8255 17.8555 31.8388 17.8555C31.6868 16.9378 31.6929 15.0113 32.8962 11.3832C34.0084 8.02247 33.9111 5.24516 32.6045 3.1242C32.0656 2.27619 31.3471 1.55689 30.4996 1.01713C29.6521 0.47736 28.6965 0.130305 27.7002 0.00048575H27.5118C26.8141 -0.0116403 26.1314 0.203555 25.5668 0.613579C25.0022 1.0236 24.5863 1.60619 24.382 2.27338C24.3604 2.34502 24.3442 2.41815 24.3334 2.49216L23.8776 5.77388C23.7403 6.75969 23.4534 7.71878 23.0267 8.61804L18.5964 17.9223C18.265 18.6896 17.7542 19.366 17.107 19.8948C16.4598 20.4235 15.695 20.7892 14.8771 20.961V20.2378C14.8771 19.4319 14.557 18.659 13.9871 18.0891C13.4173 17.5193 12.6444 17.1991 11.8385 17.1991H3.03863ZM3.03863 46.8319V20.2378H11.8385V46.8319H3.03863ZM15.1932 24.0178C16.5398 23.7816 17.8063 23.2134 18.8781 22.3645C19.9498 21.5156 20.7929 20.4128 21.3312 19.156L25.725 9.87604C26.2837 8.69615 26.6588 7.43781 26.8372 6.1446L27.3051 3.07558C27.327 3.05433 27.3544 3.0396 27.3841 3.03304C27.9142 3.11703 28.4209 3.31067 28.872 3.60157C29.323 3.89247 29.7083 4.27425 30.0034 4.72252C30.8056 6.02305 30.8056 7.99816 30.0034 10.4291C28.8245 13.9782 28.4598 16.7798 28.9095 18.761C29.0481 19.3717 29.3911 19.9168 29.8819 20.3059C30.3726 20.6949 30.9816 20.9046 31.6078 20.9002C35.6249 20.9002 38.1044 20.9367 41.9392 21.7449H42C42.4051 21.8182 42.789 21.9801 43.1243 22.219L43.3187 22.383C44.8745 23.7869 43.89 25.5858 43.6834 25.92C43.4891 26.224 43.4093 26.5872 43.4583 26.9446C43.5073 27.302 43.6818 27.6303 43.9508 27.8708C44.5424 28.4695 44.9057 29.2565 44.9778 30.0951C44.9601 30.6549 44.8299 31.2054 44.595 31.7139C44.36 32.2223 44.0252 32.6783 43.6104 33.0547C43.3829 33.2952 43.2402 33.6035 43.204 33.9326C43.1678 34.2617 43.2401 34.5937 43.4099 34.8779C43.4767 34.9934 45.0386 37.7099 41.9453 39.9828C41.6861 40.1778 41.4949 40.4495 41.3989 40.7593C41.3029 41.0692 41.307 41.4013 41.4105 41.7087C41.5746 42.1949 42.2187 44.6866 38.8823 46.1512C37.8246 46.5933 36.6859 46.8086 35.5398 46.7832H22.6743C21.1346 46.7809 19.6244 46.3608 18.3047 45.5678L14.8771 43.5137V24.0664L15.1932 24.0178Z" fill="white"/>
</svg>