<?xml version="1.0" encoding="utf-8"?>
<!-- Generator: Adobe Illustrator 15.0.0, SVG Export Plug-In  -->
<!DOCTYPE svg PUBLIC "-//W3C//DTD SVG 1.1//EN" "http://www.w3.org/Graphics/SVG/1.1/DTD/svg11.dtd" [
	<!ENTITY ns_flows "http://ns.adobe.com/Flows/1.0/">
]>
<svg version="1.1"
	 xmlns="http://www.w3.org/2000/svg" xmlns:xlink="http://www.w3.org/1999/xlink" xmlns:a="http://ns.adobe.com/AdobeSVGViewerExtensions/3.0/"
	 x="0px" y="0px" width="48px" height="50px" viewBox="0 0 48 50" overflow="visible" enable-background="new 0 0 48 50"
	 xml:space="preserve">
<defs>
</defs>
<rect x="2.955" y="20.191" fill="#FFFFFF" width="8.799" height="26.594"/>
<path fill="#FFFFFF" d="M15.216,24.018c1.347-0.236,2.613-0.804,3.685-1.653c1.072-0.849,1.915-1.951,2.453-3.208l4.394-9.28
	c0.559-1.18,0.934-2.438,1.112-3.731l0.468-3.069c0.022-0.021,0.05-0.036,0.079-0.042c0.53,0.084,1.037,0.277,1.488,0.568
	s0.836,0.673,1.132,1.121c0.802,1.3,0.802,3.275,0,5.707c-1.18,3.549-1.544,6.351-1.095,8.332c0.139,0.611,0.481,1.156,0.973,1.545
	c0.491,0.389,1.1,0.599,1.726,0.595c4.018,0,6.497,0.036,10.332,0.845h0.061c0.405,0.073,0.789,0.235,1.124,0.474l0.194,0.164
	c1.557,1.404,0.571,3.203,0.365,3.537c-0.194,0.305-0.274,0.667-0.226,1.024c0.05,0.357,0.224,0.687,0.493,0.927
	c0.592,0.599,0.955,1.386,1.026,2.225c-0.018,0.559-0.147,1.109-0.383,1.618c-0.234,0.509-0.569,0.964-0.984,1.341
	c-0.228,0.24-0.37,0.549-0.406,0.878s0.036,0.661,0.206,0.945c0.066,0.115,1.629,2.832-1.465,5.104
	c-0.26,0.195-0.45,0.467-0.547,0.777c-0.096,0.31-0.092,0.642,0.012,0.949c0.164,0.486,0.809,2.978-2.527,4.442
	c-1.059,0.442-2.197,0.657-3.343,0.632H22.697c-1.54-0.002-3.05-0.422-4.37-1.215l-3.428-2.055V24.066L15.216,24.018z"/>
<path d="M3.039,17.199c-0.806,0-1.579,0.32-2.149,0.89C0.32,18.659,0,19.432,0,20.238v26.594c0,0.806,0.32,1.578,0.89,2.148
	c0.57,0.57,1.343,0.891,2.149,0.891h8.8c0.771,0.001,1.513-0.289,2.077-0.814c0.564-0.524,0.908-1.244,0.962-2.012l1.884,1.13
	c1.794,1.077,3.846,1.646,5.938,1.647H35.54c1.553,0.016,3.093-0.29,4.521-0.9c4.103-1.822,4.746-5.025,4.442-7.152
	c1.053-0.885,1.808-2.072,2.161-3.401s0.288-2.734-0.187-4.025c1.018-1.229,1.557-2.786,1.52-4.382
	c-0.066-1.25-0.5-2.452-1.246-3.457c0.467-1.074,0.583-2.267,0.333-3.41s-0.853-2.179-1.725-2.959
	c-0.125-0.118-0.257-0.229-0.395-0.334c-0.691-0.514-1.489-0.867-2.334-1.033h-0.066c-4.029-0.857-6.74-0.912-10.727-0.912
	c-0.152-0.918-0.146-2.844,1.058-6.472c1.111-3.361,1.015-6.138-0.292-8.259c-0.539-0.848-1.257-1.567-2.104-2.107
	S28.696,0.13,27.7,0h-0.188c-0.697-0.012-1.381,0.203-1.945,0.613c-0.564,0.41-0.98,0.993-1.185,1.66
	c-0.021,0.071-0.038,0.145-0.048,0.219l-0.456,3.282c-0.138,0.986-0.425,1.945-0.852,2.844l-4.43,9.304
	c-0.332,0.767-0.843,1.444-1.49,1.972c-0.647,0.529-1.412,0.895-2.23,1.066v-0.723c0-0.806-0.32-1.579-0.89-2.149
	c-0.57-0.569-1.343-0.89-2.149-0.89H3.039z M3.039,46.832V20.238h8.8v26.594H3.039z M15.193,24.018
	c1.347-0.236,2.613-0.804,3.685-1.653c1.072-0.849,1.915-1.951,2.453-3.208l4.394-9.28c0.559-1.18,0.934-2.438,1.112-3.731
	l0.468-3.069c0.022-0.021,0.05-0.036,0.079-0.042c0.53,0.084,1.037,0.277,1.488,0.568s0.836,0.673,1.132,1.121
	c0.802,1.3,0.802,3.275,0,5.707c-1.18,3.549-1.544,6.351-1.095,8.332c0.139,0.611,0.481,1.156,0.973,1.545
	c0.491,0.389,1.1,0.599,1.726,0.595c4.018,0,6.497,0.036,10.332,0.845H42c0.405,0.073,0.789,0.235,1.124,0.474l0.194,0.164
	c1.557,1.404,0.571,3.203,0.365,3.537c-0.194,0.305-0.274,0.667-0.226,1.024c0.05,0.357,0.224,0.687,0.493,0.927
	c0.592,0.599,0.955,1.386,1.026,2.225c-0.018,0.559-0.147,1.109-0.383,1.618c-0.234,0.509-0.569,0.964-0.984,1.341
	c-0.228,0.24-0.37,0.549-0.406,0.878s0.036,0.661,0.206,0.945c0.066,0.115,1.629,2.832-1.465,5.104
	c-0.26,0.195-0.45,0.467-0.547,0.777c-0.096,0.31-0.092,0.642,0.012,0.949c0.164,0.486,0.809,2.978-2.527,4.442
	c-1.059,0.442-2.197,0.657-3.343,0.632H22.674c-1.54-0.002-3.05-0.422-4.37-1.215l-3.428-2.055V24.066L15.193,24.018z"/>
</svg>
