<?xml version="1.0" encoding="UTF-8"?>
<svg width="50px" height="40px" viewBox="0 0 50 40" version="1.1" xmlns="http://www.w3.org/2000/svg" xmlns:xlink="http://www.w3.org/1999/xlink">
    <g id="Website" stroke="none" stroke-width="1" fill="none" fill-rule="evenodd">
        <g id="Artboard-Copy-7" transform="translate(-391.000000, -8223.000000)">
            <g id="Group-23" transform="translate(391.000000, 8223.000000)">
                <path d="M44.1098785,6.32384804 C46.2287961,5.07583418 47.8546692,3.0969233 48.6177144,0.739563773 C46.6367318,1.89802109 44.4415097,2.73580818 42.1024828,3.18647985 C40.235957,1.2249025 37.5682338,0 34.6158361,0 C28.9546282,0 24.3616834,4.52116135 24.3616834,10.0967789 C24.3616834,10.8883432 24.4467923,11.6567962 24.6258144,12.39636 C16.1002524,11.9745775 8.54317075,7.95897732 3.48065974,1.84602051 C2.59728825,3.34248158 2.09250455,5.07583418 2.09250455,6.92474361 C2.09250455,10.4261158 3.90326935,13.5172613 6.65610143,15.3286148 C4.97446734,15.2795031 3.39261607,14.8201647 2.00739567,14.0690452 L2.00739567,14.1932688 C2.00739567,19.087101 5.5438164,23.1691463 10.2394788,24.093601 C9.37665082,24.3304926 8.47273581,24.4489383 7.53360333,24.4489383 C6.87327581,24.4489383 6.22762223,24.388271 5.60544697,24.2698252 C6.90849328,28.2796476 10.6973059,31.2032356 15.187533,31.2783475 C11.6745906,33.9881554 7.25186359,35.6030623 2.44761402,35.6030623 C1.62000352,35.6030623 0.801197394,35.5568395 0,35.464394 C4.54011857,38.3244258 9.93132594,40 15.7245994,40 C34.5952926,40 44.9110759,24.6136068 44.9110759,11.2696808 C44.9110759,10.8305648 44.9022715,10.3914488 44.881728,9.96388849 C46.8861889,8.53676152 48.6294535,6.76007511 50,4.7349415 C48.1628221,5.53806153 46.1818395,6.08117868 44.1098785,6.32384804 Z" id="Fill-1"></path>
            </g>
        </g>
    </g>
</svg>